<?xml version="1.0" encoding="utf-8"?>
<!DOCTYPE svg PUBLIC "-//W3C//DTD SVG 20010904//EN" "http://www.w3.org/TR/2001/REC-SVG-20010904/DTD/svg10.dtd">
<svg version="1.0" xmlns="http://www.w3.org/2000/svg" width="720px" height="722px" viewBox="0 0 720 722" preserveAspectRatio="xMidYMid meet">
 <g fill="#ffffff" stroke="#ffffff" stroke-width="1.2">
  <path d="M349 583.1 c-27.8 -2.8 -56.1 -11.4 -81.8 -24.7 -61.1 -31.9 -104.6 -89.8 -117.9 -157.1 -6.5 -33.3 -6.2 -60.4 1.5 -98.1 2.1 -10.2 9.6 -30.9 16.3 -44.7 22.5 -46.9 55.9 -80.4 102.9 -103.5 21.7 -10.7 44.4 -17.7 68.5 -21.3 28.1 -4.2 63.9 -2 92.3 5.6 22.6 6 46.2 16.8 66.7 30.5 8.7 5.8 8.2 5.5 7.3 6.3 -0.3 0.3 -2.1 -0.3 -3.9 -1.6 -4.8 -3.4 -13.4 -8.4 -15.7 -9.2 -1.2 -0.3 -2.1 -1 -2.1 -1.6 0 -0.6 -0.5 -1 -1 -1 -0.6 0 -5.5 -2 -10.8 -4.4 -18.8 -8.7 -44.8 -17 -50.6 -16.3 -3.1 0.5 -3.1 0.5 0.3 1.4 28.2 7 48.2 15.7 72.6 31.6 9.8 6.4 12.1 8.6 9.3 8.6 -0.6 0 -1.2 -0.5 -1.2 -1.2 0 -0.6 -0.6 -1.2 -1.3 -1.2 -0.6 0 -4.2 -2 -7.8 -4.4 -3.6 -2.4 -12.3 -7.2 -19.4 -10.6 -13.4 -6.5 -14.9 -7.1 -21.5 -9.4 -2.2 -0.8 -5.1 -1.7 -6.4 -2.3 -3.9 -1.5 -10.2 -3.3 -16.8 -4.6 -3.5 -0.8 -7.9 -1.9 -9.8 -2.4 -1.9 -0.6 -5 -1 -7 -0.9 -3.5 0.1 -3.5 0.1 -0.7 0.9 1.6 0.6 5.8 1.6 9.3 2.4 9.2 2 22.4 6 23.7 7.2 0.7 0.5 1.9 0.9 2.7 0.9 2.4 0 21.5 8.8 30 13.9 3.3 1.9 7.5 4.3 9.6 5.3 2 1 3.7 2.2 3.7 2.7 0 0.3 2.1 2 4.6 3.6 2.6 1.6 4.6 3.3 4.6 3.8 0 0.6 -1.4 0 -3.1 -1.3 -1.9 -1.2 -4.1 -2.6 -5 -2.9 -0.9 -0.5 -4.3 -2.3 -7.5 -4.2 -5.6 -3.4 -17.8 -9.5 -26.1 -13.2 -4.4 -2 -18.6 -6.6 -26.1 -8.7 -12.4 -3.3 -14.4 -3.7 -17.5 -3.6 -3.3 0.1 -3.3 0.1 0.7 1.3 2.2 0.6 6.2 1.6 8.7 2.3 16 4.2 39.5 13.9 55.2 23 6.4 3.6 16.3 10.9 16.3 12 0 0.6 -1.5 -0.1 -3.4 -1.4 -1.9 -1.4 -3.9 -2.4 -4.5 -2.4 -0.7 0 -1.4 -0.3 -1.6 -0.8 -0.7 -1.7 -27.4 -15.3 -30.1 -15.4 -0.9 0 -2.2 -0.5 -2.9 -1 -2.2 -2.2 -31.4 -10.6 -36.7 -10.6 -2.1 0 -2.3 0.2 -0.9 1.2 0.9 0.6 2.9 1.2 4.3 1.2 1.4 0 7.9 1.9 14.5 4.2 6.6 2.2 13 4.4 14.3 4.8 1.3 0.5 7.3 3.4 13.4 6.5 6 3.1 12.2 6.4 13.6 7.1 1.5 0.7 2.7 1.6 2.7 2.2 0 0.5 0.8 0.8 1.7 0.8 0.9 0 1.7 0.6 1.7 1.2 0 0.7 0.7 1.2 1.5 1.2 1.5 0 7.8 5 7.8 6.3 0 0.5 -2.2 -0.7 -5 -2.4 -6.6 -4.5 -26.5 -14.5 -35.1 -17.7 -3.8 -1.5 -8 -3.1 -9.3 -3.6 -7 -2.8 -19.5 -5.9 -22.3 -5.6 -3.3 0.5 -3.3 0.5 0.2 1.4 15.2 3.9 24 7.3 39.5 14.7 13.4 6.5 29.4 16.8 28 18.1 -0.3 0.3 -1.3 0.1 -2.1 -0.6 -3.5 -2.8 -29.8 -16.7 -34 -17.9 -1.3 -0.3 -5.8 -2 -10 -3.6 -10.9 -4.1 -27.1 -8 -30.3 -7.5 -2.4 0.5 -2.4 0.6 0.8 1.4 19.2 4.6 37 11 48 17.2 10.3 5.8 12.8 7.3 19.3 11.6 8.7 5.8 8.2 5.5 7.3 6.3 -0.3 0.3 -2.1 -0.3 -3.9 -1.6 -8.1 -5.8 -26.9 -15.4 -37.7 -19.4 -13.5 -4.9 -26.7 -8.7 -30.5 -8.6 -3.5 0 0.8 1.7 15.1 5.9 7 2.1 26.2 10.3 29.8 12.8 1.6 1.2 3.4 2.1 3.8 2.1 0.7 0 11.1 6.9 12.2 8 0.3 0.3 2 1.4 3.8 2.3 3.1 1.6 4.2 3.6 2 3.6 -0.6 0 -1.2 -0.5 -1.2 -1 0 -0.6 -0.9 -1.3 -2 -1.6 -2.2 -0.7 -8.6 -4.4 -9.6 -5.6 -0.8 -0.9 -19.6 -9.8 -24.4 -11.4 -2.2 -0.8 -5.1 -2 -6.4 -2.6 -6.9 -3.1 -37.4 -9.8 -35.4 -7.7 0.3 0.3 5.2 1.7 10.9 3.1 10 2.4 18.5 4.9 23.3 6.9 7.1 2.9 23.9 11.4 28.1 14.3 2.7 1.7 5.1 3.3 5.5 3.3 0.3 0 1.7 0.9 3.1 2 7.5 6.4 8.5 7.3 7.3 7.3 -0.6 0 -2.2 -0.9 -3.5 -2 -2.3 -2.1 -3.8 -3 -12 -7.5 -2.3 -1.3 -4.6 -2.7 -5.3 -3.3 -1.6 -1.2 -19.9 -8.8 -26.1 -10.9 -9.3 -3 -23.1 -6.5 -26.2 -6.5 -4.3 0 -3 0.9 3.1 2.2 18.5 3.9 46 15.8 54.9 23.7 1.3 1 2.8 2 3.4 2 1.6 0 4.6 3.5 3.8 4.4 -0.5 0.3 -1.2 0.2 -1.6 -0.3 -0.5 -0.7 -2.1 -1.9 -3.6 -2.7 -1.5 -0.9 -4.4 -2.6 -6.5 -3.7 -2.1 -1.2 -4.8 -2.7 -5.9 -3.4 -4.6 -2.7 -17.7 -7.9 -25.4 -10.2 -15.4 -4.8 -17.5 -5.2 -20.4 -4.8 -2.7 0.5 -2.7 0.6 0.7 1.4 9.3 2.2 26.5 8.4 34.3 12.2 13.1 6.6 18.6 9.8 18.6 10.8 0 0.5 0.8 0.9 1.7 0.9 0.9 0 1.7 0.5 1.7 0.9 0 0.6 1.3 1.7 2.9 2.6 1.6 0.8 2.9 2 2.9 2.6 0 0.8 -4.3 -1 -5.8 -2.6 -2 -2 -27.9 -15 -30 -15.1 -0.8 0 -2.3 -0.5 -3.5 -1 -3.7 -2.1 -17.5 -5.9 -20.8 -5.8 -2.8 0 -2.9 0.1 -0.9 0.9 1.3 0.6 6 2.1 10.5 3.5 14.4 4.5 35.1 15 41 20.7 0.9 0.8 2.7 2.1 3.9 2.8 1.3 0.7 2.1 1.5 1.7 1.9 -0.6 0.5 -5.2 -1.7 -6.6 -3.1 -0.7 -0.7 -4.9 -3.1 -12.2 -7 -13.4 -7 -40.5 -15.8 -46 -14.9 -2.7 0.5 -2.6 0.6 0.7 1.4 15.6 3.7 22.3 6.2 36 13 12.8 6.3 24.6 13.9 23.3 15.2 -0.3 0.3 -1.3 0.1 -2.1 -0.6 -3.1 -2.4 -16 -9.3 -25.3 -13.4 -9.6 -4.3 -26.4 -8.9 -31.1 -8.8 -3.1 0.1 -3.1 0.1 -0.2 1 1.6 0.5 5.2 1.5 8.1 2.3 2.9 0.7 6.2 1.9 7.2 2.4 1.2 0.6 2.7 1 3.5 1 2.2 0 20.8 9.4 28.2 14.3 8.6 5.7 8.1 5.3 7.2 6.2 -0.5 0.5 -1.4 0.2 -2.2 -0.5 -3.1 -2.4 -13 -7.8 -21.3 -11.3 -11 -4.8 -14.2 -5.7 -30.9 -9.9 -2.9 -0.7 -6.9 -1.2 -8.7 -0.9 -3.1 0.5 -3 0.6 1.3 1.3 21.4 4.1 47.4 15.7 59.1 26.6 3.4 3.1 1.2 2.6 -4.3 -1.2 -6.9 -4.6 -23.2 -12.4 -32.2 -15.2 -28.2 -8.8 -57.3 -8.8 -84.8 0.1 -38.7 12.5 -71.8 45.2 -83.8 82.8 -5 15.6 -6 22.9 -6 41.2 0 18.7 1.3 27.1 6.5 42.2 7.5 22.2 23.2 44.5 41.1 58.5 17 13.4 30.8 20.1 51.7 25.4 16.3 4.1 42.5 4.4 58.1 0.7 24.5 -5.9 43.4 -16 61.9 -32.9 12.3 -11.1 21.1 -15.2 34 -15.9 15.6 -0.8 26.7 3.3 37.4 13.8 3.8 3.7 7.7 9.1 9.9 13.7 3.4 7.2 3.6 8.5 3.6 21 0 12.1 -0.3 13.9 -3.1 20.1 -7.5 16.1 -39.3 42.2 -69.7 57.1 -21.8 10.9 -41 17 -67.7 21.5 -9.3 1.6 -46.5 2.4 -58.1 1.3z"/>
  <path d="M489.6 204.9 c-1.3 -0.8 -2.1 -1.9 -1.7 -2.1 0.2 -0.2 1.5 0.2 2.7 1.2 1.3 0.8 2.1 1.9 1.7 2.1 -0.2 0.2 -1.5 -0.2 -2.7 -1.2z"/>
 </g>
 <g fill="#ffffff">
  <path d="M347.2 428.4 c-11.3 -4.5 -13.2 -17.2 -3.9 -25.4 8 -7 20.4 -3.6 23.7 6.5 4.1 12.3 -7.8 23.7 -19.7 18.9z"/>
  <path d="M375.6 399 c-9.1 -3.9 -11.6 -15.8 -5 -23.3 2 -2.2 5.6 -4.6 8 -5.3 3.7 -1.2 5.1 -1 8.8 0.8 5.5 2.7 9.8 8.8 9.8 13.7 0 5.3 -3.5 11.3 -8.1 13.7 -4.8 2.4 -8.5 2.6 -13.5 0.5z"/>
  <path d="M402.9 368.9 c-2.2 -1.4 -4.9 -4.6 -6 -7.2 -2.9 -5.9 -1.3 -11.7 4.4 -16.7 8.9 -7.8 22.8 -2.9 24.5 8.6 2 13.2 -12.1 22.6 -22.9 15.3z"/>
  <path d="M375.6 341 c-9.1 -3.9 -11.6 -15.8 -5 -23.3 5 -5.7 10.8 -7.3 16.7 -4.4 5.5 2.6 9.9 8.6 9.9 13.6 0 5.3 -3.5 11.3 -8.1 13.7 -4.8 2.4 -8.5 2.6 -13.5 0.5z"/>
  <path d="M343.5 310.1 c-8.2 -6.7 -8.2 -16.1 -0.2 -23.2 7.9 -6.9 20.4 -3.5 23.7 6.5 4.9 14.5 -11.8 26.4 -23.5 16.7z"/>
 </g>
</svg>