<svg width="24" height="24" xmlns="http://www.w3.org/2000/svg">
 <title/>

 <g>
  <title>background</title>
  <rect fill="none" id="canvas_background" height="402" width="582" y="-1" x="-1"/>
 </g>
 <g>
  <title>Layer 1</title>
  <path fill="#ffffff" id="svg_1" d="m23.827,19.73l-5.595,0c-0.094,0 -0.17,0.058 -0.17,0.172l0,1.515c0,0.094 0.058,0.17 0.172,0.17l5.594,0c0.096,0 0.172,-0.044 0.172,-0.164l0,-1.515c0,-0.105 -0.057,-0.166 -0.173,-0.166l0,-0.014l0,0.002zm-7.364,-17.265c0.016,0.035 0.03,0.068 0.047,0.12l0,18.79c0,0.061 -0.02,0.096 -0.037,0.114a0.168,0.168 0 0 1 -0.135,0.06l-16.185,0c-0.038,0 -0.075,0 -0.097,-0.02a0.181,0.181 0 0 1 -0.056,-0.134l0,-18.829c0,-0.076 0.04,-0.134 0.096,-0.15l16.242,0c0.04,0 0.096,0.017 0.115,0.034l0,0.016l0.01,-0.001zm-14.645,17.11c0,0.073 0.038,0.136 0.096,0.153l12.643,0c0.058,-0.019 0.096,-0.076 0.096,-0.154l0,-15.17c0,-0.073 -0.039,-0.134 -0.098,-0.15l-12.64,0c-0.056,0.02 -0.096,0.073 -0.096,0.15l-0.003,15.17l0.002,0.001zm5.174,-8.374c0.65,0 1.014,0.177 1.396,0.619c0.058,0.075 0.153,0.094 0.23,0.035l1.034,-0.92c0.075,-0.044 0.058,-0.164 0.02,-0.224c-0.635,-0.764 -1.554,-1.244 -2.74,-1.244c-1.59,0 -2.79,0.795 -3.255,2.206c-0.165,0.495 -0.24,1.126 -0.24,1.979c0,0.855 0.075,1.484 0.255,1.98c0.465,1.426 1.665,2.205 3.255,2.205c1.2,0 2.115,-0.48 2.745,-1.216c0.045,-0.074 0.06,-0.165 -0.015,-0.226l-1.037,-0.915c-0.073,-0.047 -0.163,-0.047 -0.224,0.027c-0.39,0.45 -0.795,0.69 -1.454,0.69c-0.706,0 -1.245,-0.345 -1.47,-1.035c-0.136,-0.39 -0.166,-0.87 -0.166,-1.483c0,-0.615 0.045,-1.068 0.18,-1.471c0.24,-0.659 0.766,-1.007 1.486,-1.007z"/>
 </g>
</svg>