<svg width="24" height="24" xmlns="http://www.w3.org/2000/svg">
 <title/>

 <g>
  <title>background</title>
  <rect fill="none" id="canvas_background" height="402" width="582" y="-1" x="-1"/>
 </g>
 <g>
  <title>Layer 1</title>
  <path fill="#ffffff" id="svg_1" d="m23.967,12.317c0,2.5 -0.854,4.718 -2.598,6.681c-0.635,0.729 -1.143,1.076 -1.488,1.076c-0.121,0 -0.256,-0.033 -0.346,-0.125c-0.092,-0.096 -0.15,-0.223 -0.15,-0.35c0,-0.188 0.225,-0.475 0.674,-0.889c1.814,-1.736 2.727,-3.895 2.727,-6.456c0,-2.846 -0.943,-5.152 -2.816,-6.936c-0.374,-0.342 -0.57,-0.627 -0.57,-0.852c0,-0.12 0.061,-0.256 0.164,-0.345c0.105,-0.09 0.225,-0.149 0.346,-0.149c0.418,0 1.049,0.509 1.842,1.527c1.498,1.903 2.248,4.195 2.248,6.846l-0.033,-0.028zm-23.967,-0.635c0,-2.499 0.854,-4.719 2.598,-6.681c0.635,-0.729 1.143,-1.076 1.49,-1.076c0.119,0 0.254,0.033 0.344,0.125c0.09,0.095 0.15,0.189 0.15,0.314c0,0.188 -0.225,0.477 -0.674,0.918c-1.781,1.744 -2.711,3.895 -2.711,6.462c0,2.847 0.951,5.158 2.821,6.935c0.38,0.344 0.569,0.633 0.569,0.854c0,0.127 -0.061,0.256 -0.16,0.348c-0.099,0.094 -0.225,0.16 -0.352,0.16c-0.436,0 -1.033,-0.51 -1.828,-1.518c-1.513,-1.869 -2.247,-4.15 -2.247,-6.841zm17.699,6.869l-10.984,0c-0.35,0 -0.668,-0.287 -0.668,-0.666c0,-0.383 0.285,-0.668 0.668,-0.668l10.984,0c0.348,0 0.668,0.285 0.668,0.668c-0.006,0.385 -0.287,0.666 -0.668,0.666zm-6,-8.919c0.197,-0.025 0.344,0.615 0.361,0.749c0.046,0.353 -0.071,0.693 -0.231,1.003c-0.597,1.165 -1.978,2.104 -1.612,3.575c0.166,0.635 0.494,1.076 1.514,1.619c-0.345,0.119 -0.824,-0.111 -1.094,-0.301c-1.199,-0.816 -1.963,-2.156 -1.888,-3.619c0.03,-0.464 0.12,-0.92 0.239,-1.368c0.375,-1.281 1.139,-2.401 1.588,-3.647c0.225,-0.599 0.39,-1.324 0.211,-1.953c-0.09,-0.309 -0.255,-0.599 -0.465,-0.849c-0.061,-0.076 -0.404,-0.465 -0.539,-0.42c0.6,-0.225 1.139,-0.016 1.662,0.299c0.404,0.24 0.72,0.585 0.959,0.975c0.449,0.719 0.629,1.542 0.719,2.381c0.031,0.345 -0.015,1.184 0.39,1.35c0.419,0.179 0.749,-0.525 0.839,-0.81c0.195,-0.645 -0.06,-1.259 -0.314,-1.858c0.061,0.121 0.285,0.255 0.389,0.346l0.36,0.344c0.435,0.449 0.704,1.004 0.884,1.604c0.164,0.539 0.24,1.093 0.27,1.633c0.074,1.123 -0.18,2.278 -0.629,3.311c-0.195,0.463 -0.449,0.898 -0.779,1.273c-0.319,0.373 -0.748,0.613 -1.093,0.957c0.808,-0.809 1.238,-2.127 1.123,-3.131c-0.06,-0.553 -0.239,-1.063 -0.659,-1.572c0,0 0.045,0.358 0.087,0.583c0.075,0.495 -0.255,1.02 -0.644,0.959c-0.285,-0.029 -0.136,-0.643 -0.105,-0.838c0.105,-0.584 -0.03,-1.154 -0.244,-1.693c-0.209,-0.509 -0.6,-0.914 -1.198,-0.823l-0.101,-0.079z"/>
 </g>
</svg>